<svg width="60" height="60" viewBox="0 0 60 60" fill="none" xmlns="http://www.w3.org/2000/svg">
<g id="Frame 8">
<g id="Group 22">
<circle id="Ellipse 16" opacity="0.5" cx="30" cy="30" r="19.5" stroke="#1D1D1D" stroke-width="3"/>
<path id="Union" d="M18.3335 33L17.0748 32.1842L15.5738 34.5H18.3335V33ZM33.8891 9H35.3891V3.92783L32.6303 8.18416L33.8891 9ZM26.1111 33H27.6111V31.5H26.1111V33ZM26.1111 51H24.6111V56.0722L27.3698 51.8158L26.1111 51ZM41.6667 27L42.9254 27.8158L44.4264 25.5H41.6667V27ZM33.8891 27H32.3891V28.5H33.8891V27ZM19.5922 33.8158L35.1478 9.81584L32.6303 8.18416L17.0748 32.1842L19.5922 33.8158ZM26.1111 31.5H18.3335V34.5H26.1111V31.5ZM27.6111 51V33H24.6111V51H27.6111ZM40.4079 26.1842L24.8524 50.1842L27.3698 51.8158L42.9254 27.8158L40.4079 26.1842ZM33.8891 28.5H41.6667V25.5H33.8891V28.5ZM32.3891 9V27H35.3891V9H32.3891Z" fill="#1D1D1D"/>
</g>
</g>
</svg>
